<svg width="1493.3333" height="1349.3333" xmlns="http://www.w3.org/2000/svg">
 <metadata id="metadata8">image/svg+xml</metadata>
 <defs>
  <clipPath clipPathUnits="userSpaceOnUse" id="clipPath20">
   <path d="m189.2622,976.6649l1120,0l0,-1012l-1120,0l0,1012z" id="path18"/>
  </clipPath>
  <clipPath clipPathUnits="userSpaceOnUse" id="clipPath72">
   <path d="m250.1567,819.5189l300.9885,0l0,-300.989l-300.9885,0l0,300.989z" id="path70"/>
  </clipPath>
 </defs>
 <g>
  <title>Layer 1</title>
  <g id="g14" transform="matrix(2.61026 0 0 -2.55838 -312.217 2414.46)">
   <g id="g16" clip-path="url(#clipPath20)">
    <g id="g30">
     <path d="m556.15613,706.61692c0,-83.112 -67.378,-150.495 -150.494,-150.495c-83.116,0 -150.494,67.383 -150.494,150.495c0,83.117 67.378,150.494 150.494,150.494c83.116,0 150.494,-67.377 150.494,-150.494" id="path32" fill-rule="nonzero" fill="#412116"/>
    </g>
    <g id="g34">
     <path d="m394.91981,762.09147c2.123,3.099 4.264,6.154 6.428,9.14c3.336,4.605 6.701,9.051 10.069,13.332c25.854,-11.933 51.521,-14.413 74.876,-16.677c17.288,-1.676 33.243,-3.235 46.743,-8.552c0.252,-0.607 0.493,-1.222 0.739,-1.835c0.112,-0.283 0.227,-0.573 0.341,-0.856c0.231,-0.594 0.459,-1.19 0.682,-1.791c0.112,-0.312 0.227,-0.621 0.343,-0.928c0.219,-0.607 0.443,-1.21 0.651,-1.816c0.08,-0.229 0.154,-0.465 0.236,-0.696c0.427,-1.224 0.828,-2.456 1.215,-3.698c0.084,-0.256 0.168,-0.525 0.246,-0.788c0.179,-0.586 0.357,-1.172 0.524,-1.762c0.106,-0.36 0.211,-0.725 0.314,-1.086c0.159,-0.571 0.322,-1.146 0.475,-1.725c0.104,-0.373 0.199,-0.755 0.298,-1.131c0.149,-0.578 0.298,-1.151 0.446,-1.732c0.071,-0.297 0.138,-0.591 0.208,-0.891c0.259,-1.092 0.511,-2.195 0.745,-3.302c0.087,-0.424 0.182,-0.854 0.27,-1.274c0.109,-0.542 0.21,-1.083 0.315,-1.621c0.085,-0.456 0.174,-0.908 0.254,-1.362c0.099,-0.528 0.192,-1.053 0.273,-1.575c0.09,-0.507 0.164,-1.003 0.244,-1.5c0.095,-0.608 0.19,-1.206 0.277,-1.814c0.108,-0.787 0.222,-1.587 0.32,-2.383c0.058,-0.476 0.115,-0.949 0.16,-1.414c0.067,-0.549 0.131,-1.089 0.183,-1.637c0.05,-0.479 0.093,-0.962 0.141,-1.442c0.052,-0.558 0.101,-1.117 0.141,-1.678c0.038,-0.458 0.075,-0.912 0.105,-1.373c0.048,-0.73 0.091,-1.466 0.137,-2.203c0.022,-0.482 0.045,-0.951 0.067,-1.434c0.034,-0.772 0.061,-1.548 0.084,-2.324c0.01,-0.413 0.011,-0.828 0.02,-1.241c0.012,-0.635 0.019,-1.267 0.023,-1.902c0.004,-0.425 0,-0.844 -0.008,-1.264c0,-0.679 -0.011,-1.358 -0.025,-2.042c-0.01,-0.36 -0.012,-0.718 -0.027,-1.075c-0.024,-1.012 -0.067,-2.017 -0.114,-3.032c-0.02,-0.272 -0.039,-0.539 -0.052,-0.815c-0.046,-0.778 -0.098,-1.555 -0.154,-2.337c-0.024,-0.379 -0.063,-0.755 -0.089,-1.131c-0.058,-0.704 -0.123,-1.403 -0.19,-2.103c-0.033,-0.371 -0.072,-0.743 -0.108,-1.111c-0.089,-0.823 -0.186,-1.649 -0.29,-2.472c-0.026,-0.223 -0.052,-0.453 -0.078,-0.684c-0.138,-1.049 -0.287,-2.088 -0.451,-3.129c-0.04,-0.294 -0.09,-0.588 -0.137,-0.886c-0.123,-0.77 -0.253,-1.536 -0.387,-2.312c-0.064,-0.358 -0.129,-0.719 -0.197,-1.083c-0.138,-0.741 -0.279,-1.492 -0.428,-2.229c-0.067,-0.327 -0.134,-0.662 -0.203,-0.986c-0.218,-1.053 -0.448,-2.113 -0.694,-3.17c-0.264,-1.12 -0.536,-2.236 -0.828,-3.341c-0.143,-0.551 -0.288,-1.094 -0.439,-1.638c-0.151,-0.543 -0.296,-1.09 -0.452,-1.629c-0.208,-0.734 -0.428,-1.459 -0.646,-2.181c-0.103,-0.342 -0.202,-0.677 -0.303,-1.016c-0.268,-0.844 -0.541,-1.685 -0.818,-2.522c-0.067,-0.201 -0.138,-0.409 -0.203,-0.611c-0.311,-0.934 -0.634,-1.849 -0.965,-2.764c-0.037,-0.101 -0.079,-0.212 -0.112,-0.313c-0.358,-0.978 -0.726,-1.949 -1.103,-2.921c-0.013,-0.033 -0.029,-0.066 -0.04,-0.108c-0.792,-2.02 -1.624,-4.014 -2.506,-5.982c-28.269,50.058 -82.184,87.488 -136.546,111.858" id="path36" fill-rule="nonzero" fill="#ef591a"/>
    </g>
    <g id="g38">
     <path d="m298.91202,715.33512c19.083,13.639 41.843,21.79 65.746,12.137c-17.948,-33.458 -31.861,-70.519 -36.416,-106.912c-1.153,-9.212 -1.704,-18.395 -1.567,-27.463c-0.103,0.07 -0.204,0.141 -0.306,0.212c-0.845,0.588 -1.677,1.184 -2.507,1.786c-0.219,0.164 -0.439,0.328 -0.654,0.496c-0.716,0.527 -1.429,1.06 -2.136,1.607c-0.261,0.203 -0.517,0.406 -0.782,0.614c-0.654,0.513 -1.304,1.026 -1.949,1.543c-0.279,0.23 -0.554,0.46 -0.836,0.693c-0.615,0.51 -1.23,1.023 -1.834,1.544c-0.29,0.245 -0.568,0.494 -0.854,0.736c-0.59,0.521 -1.183,1.039 -1.771,1.568c-0.28,0.251 -0.556,0.507 -0.837,0.762c-0.581,0.532 -1.154,1.064 -1.719,1.6c-0.28,0.257 -0.549,0.524 -0.822,0.786c-0.566,0.542 -1.128,1.096 -1.686,1.643c-0.26,0.264 -0.521,0.526 -0.783,0.793c-0.562,0.566 -1.111,1.139 -1.663,1.715c-0.245,0.261 -0.494,0.518 -0.735,0.77c-0.564,0.603 -1.117,1.209 -1.667,1.809c-0.222,0.25 -0.445,0.491 -0.67,0.739c-0.566,0.641 -1.126,1.289 -1.686,1.932c-0.195,0.223 -0.383,0.444 -0.573,0.667c-0.595,0.699 -1.175,1.41 -1.76,2.113c-0.145,0.179 -0.294,0.354 -0.439,0.536c-0.645,0.806 -1.291,1.617 -1.922,2.441c-0.065,0.089 -0.135,0.168 -0.202,0.253c-2.854,3.724 -5.524,7.586 -7.985,11.579c-0.008,0 -0.011,0.007 -0.015,0.015c-0.599,0.971 -1.184,1.953 -1.764,2.939c-0.067,0.116 -0.134,0.235 -0.199,0.354c-0.513,0.874 -1.01,1.764 -1.505,2.657c-0.093,0.167 -0.19,0.346 -0.281,0.517c-0.452,0.841 -0.91,1.677 -1.347,2.534c-0.11,0.201 -0.215,0.405 -0.32,0.613c-0.422,0.819 -0.836,1.652 -1.241,2.482c-0.108,0.228 -0.215,0.454 -0.33,0.681c-0.392,0.819 -0.779,1.641 -1.157,2.469c-0.105,0.23 -0.213,0.469 -0.314,0.7c-0.374,0.829 -0.744,1.659 -1.097,2.493c-0.101,0.234 -0.198,0.468 -0.294,0.703c-0.359,0.848 -0.707,1.696 -1.048,2.552c-0.087,0.22 -0.18,0.44 -0.262,0.666c-0.347,0.879 -0.675,1.757 -1.003,2.642c-0.071,0.205 -0.153,0.406 -0.225,0.607c-0.332,0.926 -0.657,1.853 -0.971,2.787c-0.056,0.163 -0.114,0.32 -0.168,0.491c-0.338,0.997 -0.658,2.002 -0.969,3.006c-0.032,0.101 -0.061,0.198 -0.093,0.29c-2.074,6.769 -3.641,13.73 -4.655,20.813l0.002,0.007c8.411,9.682 18.668,19.985 30.271,28.283" id="path40" fill-rule="nonzero" fill="#ef591a"/>
    </g>
    <g id="g42">
     <path d="m476.76791,588.40452c-0.024,-0.014 -0.045,-0.026 -0.067,-0.044c-0.933,-0.561 -1.875,-1.108 -2.821,-1.648c-0.022,-0.018 -0.041,-0.031 -0.059,-0.041c-0.951,-0.54 -1.909,-1.072 -2.872,-1.588c-0.017,-0.009 -0.032,-0.024 -0.046,-0.028c-0.967,-0.523 -1.947,-1.037 -2.931,-1.536c-0.01,0 -0.015,-0.014 -0.027,-0.014c-0.991,-0.507 -1.983,-0.994 -2.98,-1.474c-0.004,0.004 -0.009,-0.003 -0.013,-0.003c-6.038,-2.895 -12.295,-5.352 -18.722,-7.353c-0.472,2.005 -0.948,4.04 -1.432,6.113c-12.461,53.145 -29.993,127.907 -69.245,150.174c4.759,8.45 9.763,16.651 14.924,24.5c0.292,-0.126 0.584,-0.255 0.874,-0.389c54.928,-24.561 109.349,-62.6 135.887,-113.501c-2.162,-4.052 -4.514,-7.97 -7.034,-11.743l-0.006,-0.007c-0.629,-0.943 -1.271,-1.871 -1.922,-2.799c0,0 -0.006,-0.007 -0.006,-0.011c-0.655,-0.919 -1.314,-1.834 -1.981,-2.73c-0.002,-0.007 -0.01,-0.023 -0.017,-0.027c-0.671,-0.897 -1.346,-1.785 -2.035,-2.668c-0.008,-0.015 -0.017,-0.018 -0.03,-0.034c-0.685,-0.873 -1.379,-1.744 -2.084,-2.601c-0.009,-0.014 -0.018,-0.021 -0.033,-0.041c-0.7,-0.851 -1.418,-1.7 -2.137,-2.536c-0.018,-0.015 -0.029,-0.034 -0.047,-0.049c-0.722,-0.834 -1.448,-1.659 -2.186,-2.47c-0.017,-0.02 -0.034,-0.037 -0.05,-0.056c-0.739,-0.808 -1.483,-1.607 -2.24,-2.404c-0.022,-0.022 -0.043,-0.041 -0.064,-0.064c-0.755,-0.788 -1.516,-1.57 -2.284,-2.335c-0.022,-0.028 -0.049,-0.046 -0.069,-0.072c-0.769,-0.762 -1.546,-1.53 -2.333,-2.27c-0.02,-0.025 -0.051,-0.051 -0.077,-0.07c-0.788,-0.748 -1.577,-1.489 -2.377,-2.215c-0.033,-0.026 -0.056,-0.051 -0.082,-0.074c-0.804,-0.721 -1.613,-1.436 -2.43,-2.147c-0.029,-0.025 -0.055,-0.048 -0.085,-0.066c-0.819,-0.707 -1.641,-1.407 -2.477,-2.092c-0.027,-0.022 -0.057,-0.043 -0.087,-0.07c-0.837,-0.681 -1.674,-1.356 -2.526,-2.018c-0.026,-0.021 -0.058,-0.048 -0.09,-0.074c-0.848,-0.664 -1.7,-1.313 -2.567,-1.955c-0.033,-0.024 -0.06,-0.05 -0.089,-0.069c-0.867,-0.64 -1.743,-1.283 -2.62,-1.901c-0.03,-0.022 -0.059,-0.042 -0.089,-0.067c-0.884,-0.621 -1.771,-1.235 -2.668,-1.834c-0.03,-0.015 -0.058,-0.034 -0.082,-0.056c-0.9,-0.595 -1.805,-1.19 -2.722,-1.775c-0.02,-0.018 -0.05,-0.031 -0.073,-0.052c-0.918,-0.584 -1.845,-1.157 -2.771,-1.716" id="path44" fill-rule="nonzero" fill="#ef591a"/>
    </g>
    <g id="g46">
     <path d="m369.93791,573.14567c-0.729,0.193 -1.458,0.396 -2.18,0.599c-0.356,0.093 -0.706,0.197 -1.057,0.297c-0.774,0.224 -1.546,0.458 -2.315,0.697c-0.256,0.078 -0.505,0.152 -0.755,0.23c-0.963,0.306 -1.92,0.621 -2.872,0.942c-0.395,0.134 -0.782,0.271 -1.169,0.405c-0.588,0.209 -1.172,0.417 -1.75,0.636c-0.456,0.157 -0.902,0.328 -1.351,0.496c-0.521,0.2 -1.04,0.398 -1.561,0.598c-0.458,0.183 -0.919,0.362 -1.379,0.543c-0.641,0.261 -1.283,0.529 -1.918,0.797c-0.748,0.316 -1.491,0.64 -2.232,0.964c-0.357,0.159 -0.72,0.316 -1.077,0.487c-0.575,0.256 -1.14,0.521 -1.714,0.786c-0.303,0.14 -0.608,0.286 -0.911,0.43c-0.614,0.294 -1.228,0.588 -1.829,0.886c-0.032,0.016 -0.06,0.033 -0.095,0.046c-1.468,0.736 -2.919,1.495 -4.356,2.265c-0.083,0.052 -0.172,0.097 -0.254,0.145c-0.666,0.361 -1.329,0.726 -1.991,1.105c-0.16,0.093 -0.32,0.186 -0.484,0.28c-0.671,0.386 -1.343,0.773 -2.007,1.165c-0.474,10.396 0.02,20.972 1.353,31.627c4.438,35.487 18.096,71.738 35.723,104.503c36.194,-20.572 53.261,-93.348 65.389,-145.076c0.516,-2.192 1.018,-4.335 1.516,-6.448c-0.081,-0.015 -0.159,-0.042 -0.232,-0.052c-1.111,-0.279 -2.223,-0.532 -3.34,-0.782c-0.411,-0.093 -0.822,-0.172 -1.229,-0.26c-0.802,-0.165 -1.606,-0.332 -2.413,-0.492c-0.466,-0.082 -0.938,-0.173 -1.405,-0.26c-0.763,-0.145 -1.527,-0.268 -2.294,-0.394c-0.477,-0.083 -0.953,-0.157 -1.427,-0.231c-0.796,-0.122 -1.592,-0.231 -2.388,-0.342c-0.441,-0.064 -0.871,-0.119 -1.314,-0.179c-0.988,-0.122 -1.97,-0.23 -2.964,-0.335c-0.245,-0.03 -0.494,-0.055 -0.748,-0.089c-1.231,-0.12 -2.474,-0.216 -3.709,-0.312c-0.365,-0.019 -0.734,-0.038 -1.098,-0.065c-0.886,-0.05 -1.771,-0.102 -2.661,-0.139c-0.464,-0.024 -0.931,-0.035 -1.395,-0.053c-0.803,-0.022 -1.606,-0.045 -2.407,-0.06c-0.486,-0.005 -0.975,-0.011 -1.461,-0.015c-0.805,-0.003 -1.616,0.004 -2.42,0.01c-0.472,0 -0.934,0.009 -1.397,0.02c-0.912,0.026 -1.825,0.061 -2.741,0.101c-0.353,0.014 -0.706,0.022 -1.067,0.041c-1.265,0.058 -2.536,0.141 -3.803,0.241c-0.261,0.019 -0.521,0.049 -0.778,0.071c-1.018,0.086 -2.032,0.179 -3.047,0.286c-0.443,0.048 -0.89,0.101 -1.336,0.156c-0.841,0.097 -1.676,0.202 -2.519,0.31c-0.486,0.07 -0.975,0.142 -1.459,0.212c-0.818,0.119 -1.629,0.245 -2.448,0.376c-0.478,0.085 -0.954,0.156 -1.436,0.241c-0.875,0.157 -1.749,0.317 -2.623,0.488c-0.414,0.081 -0.823,0.157 -1.238,0.245c-1.278,0.253 -2.557,0.533 -3.838,0.831c-1.049,0.249 -2.091,0.503 -3.131,0.769c-0.318,0.086 -0.642,0.171 -0.958,0.257" id="path48" fill-rule="nonzero" fill="#ef591a"/>
    </g>
    <g id="g50">
     <path d="m339.70592,828.09202c0.093,0.056 0.191,0.106 0.286,0.162c2.884,1.555 5.823,3.001 8.814,4.35c0.081,0.031 0.165,0.064 0.245,0.106c3.016,1.352 6.093,2.6 9.205,3.732c0.058,0.024 0.106,0.041 0.166,0.061c1.57,0.569 3.155,1.114 4.751,1.626c1.232,-16.122 10.724,-34.007 41.053,-49.999c-3.107,-3.967 -6.199,-8.065 -9.256,-12.29c-2.483,-3.429 -4.951,-6.945 -7.391,-10.536c-31.985,13.642 -63.802,22.77 -90.298,27.306c0.004,0.007 0.008,0.011 0.011,0.015c1.044,1.309 2.11,2.595 3.196,3.859c0.049,0.059 0.105,0.116 0.153,0.174c2.167,2.512 4.412,4.946 6.742,7.286c0.071,0.067 0.145,0.141 0.212,0.211c2.321,2.325 4.714,4.553 7.189,6.698c0.089,0.074 0.178,0.155 0.264,0.227c2.467,2.132 5.008,4.167 7.613,6.123c0.096,0.069 0.197,0.145 0.295,0.214c2.607,1.944 5.286,3.79 8.023,5.54c0.1,0.06 0.203,0.129 0.307,0.19c2.742,1.747 5.549,3.403 8.42,4.945" id="path52" fill-rule="nonzero" fill="#ef591a"/>
    </g>
    <g id="g54">
     <path d="m441.01012,840.04508c1.053,-0.289 2.103,-0.575 3.144,-0.88c0.103,-0.026 0.207,-0.063 0.309,-0.093c1.146,-0.337 2.292,-0.691 3.427,-1.053c0.011,-0.011 0.022,-0.011 0.032,-0.015c1.205,-0.387 2.401,-0.796 3.594,-1.209c-13.077,-10.067 -27.745,-24.654 -42.28,-42.41c-28.701,14.788 -37.143,31.344 -37.944,46.082c0.011,0.008 0.022,0.008 0.034,0.008c3.825,0.981 7.708,1.795 11.627,2.441c0.158,0.028 0.32,0.048 0.48,0.078c1.126,0.182 2.251,0.35 3.386,0.501c0.197,0.027 0.397,0.055 0.596,0.079c1.168,0.157 2.337,0.292 3.512,0.417c0.119,0.017 0.238,0.026 0.354,0.041c2.638,0.272 5.291,0.465 7.951,0.582c0.147,0.006 0.289,0.01 0.434,0.014c1.131,0.051 2.261,0.082 3.395,0.1c0.317,0.004 0.633,0.004 0.945,0.004c0.984,0.015 1.965,0.015 2.953,0c0.359,-0.004 0.712,-0.004 1.062,-0.016c1.003,-0.018 2.01,-0.051 3.01,-0.096c0.302,-0.012 0.606,-0.022 0.908,-0.037c2.601,-0.127 5.205,-0.328 7.819,-0.6c0.356,-0.041 0.708,-0.084 1.063,-0.122c0.93,-0.108 1.868,-0.223 2.809,-0.344c0.454,-0.061 0.91,-0.129 1.363,-0.196c0.858,-0.122 1.703,-0.254 2.562,-0.394c0.467,-0.074 0.938,-0.158 1.403,-0.235c0.893,-0.16 1.779,-0.327 2.672,-0.498c0.411,-0.078 0.822,-0.149 1.232,-0.236c1.291,-0.263 2.585,-0.541 3.877,-0.845c1.231,-0.286 2.463,-0.593 3.68,-0.914c0.195,-0.055 0.39,-0.103 0.591,-0.154" id="path56" fill-rule="nonzero" fill="#ef591a"/>
    </g>
    <g id="g58">
     <path d="m487.07461,775.69108c-22.15,2.145 -46.437,4.499 -70.564,15.198c15.306,18.608 30.48,33.408 43.362,42.65c0.59,-0.249 1.169,-0.513 1.753,-0.773c0.404,-0.179 0.813,-0.356 1.219,-0.542c0.563,-0.257 1.12,-0.523 1.681,-0.789c0.417,-0.195 0.838,-0.385 1.254,-0.59c0.551,-0.272 1.1,-0.541 1.65,-0.82c0.412,-0.207 0.827,-0.418 1.24,-0.631c0.546,-0.279 1.088,-0.561 1.627,-0.852c0.406,-0.208 0.804,-0.428 1.208,-0.645c0.544,-0.3 1.085,-0.594 1.622,-0.903c0.385,-0.214 0.77,-0.431 1.152,-0.651c0.547,-0.323 1.094,-0.638 1.641,-0.954c0.355,-0.21 0.703,-0.428 1.055,-0.64c0.565,-0.341 1.129,-0.683 1.683,-1.031c0.296,-0.184 0.588,-0.374 0.878,-0.562c2.985,-1.9 5.885,-3.905 8.692,-6.01c0.205,-0.157 0.413,-0.302 0.615,-0.464c0.595,-0.445 1.179,-0.903 1.761,-1.364c0.237,-0.182 0.477,-0.368 0.712,-0.556c0.571,-0.452 1.139,-0.915 1.705,-1.38c0.234,-0.199 0.469,-0.387 0.703,-0.587c0.569,-0.469 1.133,-0.948 1.685,-1.427c0.22,-0.187 0.433,-0.37 0.646,-0.557c0.575,-0.501 1.148,-1.011 1.719,-1.514c0.173,-0.161 0.348,-0.319 0.514,-0.48c0.604,-0.546 1.203,-1.093 1.791,-1.655c0.094,-0.089 0.184,-0.175 0.28,-0.261c4.218,-4.01 8.174,-8.265 11.842,-12.754c0.046,-0.059 0.092,-0.11 0.137,-0.162c0.586,-0.716 1.162,-1.435 1.726,-2.161c0.05,-0.063 0.1,-0.122 0.151,-0.197c0.569,-0.736 1.138,-1.473 1.696,-2.221c0.027,-0.037 0.053,-0.061 0.079,-0.102c4.714,-6.313 8.889,-13.023 12.464,-20.054c-12.516,3.643 -26.481,5.001 -41.379,6.441" id="path60" fill-rule="nonzero" fill="#ef591a"/>
    </g>
    <g id="g62">
     <path d="m272.02721,742.51237c0.197,0.722 0.391,1.447 0.597,2.158c0.132,0.48 0.281,0.962 0.43,1.442c0.177,0.618 0.357,1.232 0.551,1.841c0.163,0.523 0.335,1.044 0.507,1.565c0.177,0.556 0.36,1.113 0.546,1.667c0.189,0.555 0.387,1.101 0.58,1.654c0.186,0.512 0.361,1.022 0.547,1.531c0.216,0.575 0.43,1.146 0.651,1.712c0.178,0.48 0.354,0.952 0.549,1.429c0.229,0.589 0.474,1.179 0.712,1.763c0.183,0.444 0.361,0.886 0.547,1.319c0.259,0.608 0.525,1.215 0.789,1.818c0.176,0.407 0.361,0.814 0.544,1.226c0.283,0.616 0.565,1.235 0.855,1.851c0.177,0.381 0.354,0.755 0.536,1.131c0.307,0.637 0.622,1.269 0.932,1.902c0.175,0.342 0.35,0.684 0.523,1.029c0.335,0.649 0.666,1.296 1.012,1.946c0.164,0.306 0.335,0.619 0.502,0.932c0.361,0.667 0.726,1.328 1.092,1.987c0.159,0.279 0.319,0.556 0.479,0.831c0.387,0.683 0.781,1.356 1.179,2.034c0.149,0.245 0.293,0.482 0.443,0.725c0.42,0.703 0.846,1.399 1.28,2.088c0.126,0.201 0.253,0.399 0.383,0.595c0.46,0.725 0.919,1.448 1.395,2.162c0.097,0.15 0.197,0.301 0.3,0.446c0.506,0.759 1.014,1.518 1.533,2.259c0.006,0.019 0.017,0.022 0.024,0.035c26.139,-4.102 58.407,-13.111 91.106,-26.947c-5.076,-7.777 -9.993,-15.878 -14.682,-24.224c-27.227,11.487 -52.833,2.537 -74.128,-12.684c-10.013,-7.156 -19.036,-15.715 -26.794,-24.131c-0.16,2.401 -0.253,4.811 -0.283,7.232c-0.002,0.168 -0.004,0.329 -0.004,0.495c-0.02,2.193 0.017,4.396 0.101,6.599c0.015,0.305 0.024,0.61 0.036,0.912c0.031,0.61 0.061,1.211 0.1,1.819c0.028,0.417 0.052,0.833 0.084,1.258c0.035,0.556 0.072,1.105 0.118,1.668c0.073,0.879 0.153,1.77 0.241,2.655c0.045,0.441 0.094,0.878 0.143,1.317c0.065,0.607 0.132,1.211 0.212,1.818c0.052,0.428 0.1,0.852 0.163,1.285c0.097,0.73 0.199,1.455 0.306,2.181c0.04,0.287 0.087,0.575 0.13,0.862c0.152,0.998 0.324,2 0.498,3c0.052,0.306 0.116,0.611 0.172,0.919c0.141,0.771 0.29,1.541 0.446,2.309c0.065,0.308 0.123,0.62 0.188,0.934c0.222,1.033 0.443,2.075 0.687,3.109c0.26,1.129 0.539,2.251 0.83,3.371c0.104,0.391 0.217,0.783 0.312,1.165" id="path64" fill-rule="nonzero" fill="#ef591a"/>
    </g>
    <g id="g66">
     <g id="g68"/>
     <g id="g76">
      <g clip-path="url(#clipPath72)" opacity="0.5" id="g74"/>
     </g>
    </g>
   </g>
  </g>
  <text transform="matrix(5.61921 0 0 5.28439 -2978.52 -4715.02)" stroke="#000" font-style="normal" font-weight="normal" xml:space="preserve" text-anchor="start" font-family="'Calistoga'" font-size="24" id="svg_1" y="1107.8552" x="595.95248" stroke-width="0" fill="#ef591a">NBATracker</text>
 </g>
</svg>